<?xml version="1.0" standalone="no"?>
<!DOCTYPE svg PUBLIC "-//W3C//DTD SVG 20010904//EN"
 "http://www.w3.org/TR/2001/REC-SVG-20010904/DTD/svg10.dtd">
<svg version="1.0" xmlns="http://www.w3.org/2000/svg"
 width="200.000000pt" height="200.000000pt" viewBox="0 0 200.000000 200.000000"
 preserveAspectRatio="xMidYMid meet">
<metadata>
Created by potrace 1.11, written by Peter Selinger 2001-2013
</metadata>
<g transform="translate(0.000000,200.000000) scale(0.100000,-0.100000)"
fill="#000000" stroke="none">
<path d="M850 1850 c-20 -20 -20 -22 -3 -51 15 -25 19 -27 25 -12 3 10 8 -18
9 -62 1 -44 4 -70 6 -57 5 25 14 27 46 11 21 -10 21 -10 3 5 -11 9 -26 16 -33
16 -8 0 -13 14 -13 40 0 29 5 42 20 50 24 13 26 43 4 64 -21 21 -40 20 -64 -4z"/>
<path d="M846 1729 c-3 -17 -6 -47 -6 -65 0 -26 -4 -34 -18 -34 -10 0 -23 5
-30 12 -8 8 -12 8 -12 1 0 -6 13 -16 29 -21 27 -9 30 -16 34 -59 l3 -48 2 53
c2 44 5 52 21 52 13 0 22 -11 30 -37 l10 -38 -4 36 c-5 31 -2 37 20 47 14 6
25 17 25 23 0 8 -6 7 -17 -3 -10 -8 -33 -15 -52 -17 l-34 -2 6 66 c7 69 3 85
-7 34z"/>
<path d="M789 1673 c-13 -17 -13 -17 6 -3 11 8 22 16 24 17 2 2 0 3 -6 3 -6 0
-17 -8 -24 -17z"/>
<path d="M927 1439 c-11 -6 -32 -8 -49 -5 -36 7 -68 -8 -68 -33 0 -10 -18 -31
-40 -46 -56 -39 -105 -95 -136 -157 -14 -29 -39 -65 -55 -80 -23 -21 -29 -36
-29 -67 0 -22 4 -42 9 -45 4 -3 11 -49 14 -103 3 -59 12 -117 23 -147 21 -55
82 -129 122 -148 36 -18 40 -39 41 -210 1 -147 1 -148 29 -179 24 -27 36 -32
95 -36 86 -7 85 -22 -2 -54 -39 -15 -71 -62 -70 -104 0 -17 3 -23 5 -15 6 16
36 90 38 90 1 0 18 6 39 14 37 13 39 12 73 -22 34 -34 35 -34 102 -28 206 21
212 20 212 -35 0 -27 3 -29 40 -29 44 0 48 8 29 57 -21 57 -47 74 -149 97 -36
8 -47 45 -54 181 -3 66 -12 147 -19 181 -7 34 -11 66 -9 72 2 7 31 26 65 44
34 18 87 58 118 89 75 73 92 127 93 294 1 129 -12 198 -51 282 -32 69 -79 108
-159 133 -73 22 -225 28 -257 9z m53 -9 c0 -11 -64 -30 -100 -30 -14 0 -32 5
-40 10 -17 11 -5 13 60 11 19 -1 42 3 50 9 19 12 30 13 30 0z m160 -9 c49 -10
75 -35 116 -113 62 -121 72 -326 19 -433 -30 -62 -84 -115 -95 -93 -4 7 -10
30 -14 50 -4 21 -11 40 -15 42 -5 3 -55 -11 -112 -30 -96 -34 -113 -37 -227
-38 l-123 -1 5 -25 c22 -108 27 -119 75 -137 50 -19 157 -24 228 -10 l43 9
-17 -39 c-13 -29 -19 -79 -23 -213 l-5 -175 -52 -9 c-57 -9 -110 -3 -138 18
-16 11 -19 34 -24 193 -5 147 -10 185 -24 206 -10 15 -23 27 -29 27 -9 0 -9
-3 0 -12 22 -22 12 -30 -15 -12 -75 48 -114 132 -121 258 l-4 91 113 -7 c146
-8 347 5 387 26 43 22 62 84 38 120 -31 48 -69 60 -216 64 -89 2 -159 -1 -206
-11 l-71 -13 20 35 c33 58 82 115 123 143 37 25 42 26 91 15 46 -9 59 -8 100
9 39 16 49 25 51 47 3 24 7 27 40 27 20 -1 57 -5 82 -9z m-160 -32 c0 -11 -60
-29 -96 -29 -25 0 -64 20 -64 33 0 6 160 1 160 -4z m83 -246 c40 -17 57 -38
57 -75 0 -21 -2 -20 -20 9 -24 40 -70 60 -180 78 l-85 14 95 -6 c52 -3 112
-12 133 -20z m-113 -13 c44 -9 44 -9 -15 -6 -33 2 -113 0 -178 -3 -109 -6
-119 -9 -143 -33 -22 -21 -24 -29 -15 -46 6 -12 28 -26 49 -32 80 -22 365 -6
399 22 23 18 14 48 -19 68 -18 11 -26 20 -18 20 8 0 30 -9 48 -20 40 -25 45
-72 10 -91 -27 -15 -338 -25 -422 -15 -86 11 -109 48 -63 102 20 23 33 27 108
34 118 10 206 10 259 0z m-194 -66 c-5 -13 -10 -14 -18 -6 -6 6 -8 18 -4 28 5
13 10 14 18 6 6 -6 8 -18 4 -28z m179 11 c0 -10 -6 -20 -12 -22 -8 -3 -13 5
-13 22 0 17 5 25 13 23 6 -3 12 -13 12 -23z m50 -915 c10 -11 16 -20 13 -20
-3 0 -13 9 -23 20 -10 11 -16 20 -13 20 3 0 13 -9 23 -20z"/>
</g>
</svg>
